<?xml version="1.0" standalone="no"?>
<!DOCTYPE svg PUBLIC "-//W3C//DTD SVG 20010904//EN"
 "http://www.w3.org/TR/2001/REC-SVG-20010904/DTD/svg10.dtd">
<svg version="1.0" xmlns="http://www.w3.org/2000/svg"
 width="800.000000pt" height="800.000000pt" viewBox="0 0 800.000000 800.000000"
 preserveAspectRatio="xMidYMid meet">

<g transform="translate(0.000000,800.000000) scale(0.100000,-0.100000)"
fill="#000000" stroke="none">
<path d="M4605 7927 c-108 -36 -197 -107 -265 -212 l-42 -65 -55 49 c-106 95
-201 131 -348 131 -152 0 -316 -53 -440 -141 l-40 -29 -70 15 c-90 19 -264 19
-353 0 -114 -24 -257 -84 -315 -133 -9 -8 -18 -13 -20 -11 -1 2 -16 23 -32 47
-36 54 -98 92 -152 92 -56 0 -72 -21 -88 -126 -12 -69 -20 -93 -41 -115 -25
-26 -25 -28 -10 -58 16 -31 61 -61 91 -61 20 0 19 -3 -11 -51 -129 -205 -150
-518 -50 -764 62 -154 188 -306 332 -402 52 -34 55 -39 49 -67 -3 -17 -14
-103 -25 -191 -11 -98 -27 -183 -41 -220 -17 -46 -22 -80 -21 -145 1 -47 1
-308 1 -580 0 -272 4 -618 11 -769 6 -150 8 -276 5 -279 -6 -7 -38 29 -85 95
-26 36 -30 51 -30 106 0 73 -29 196 -60 257 -28 55 -21 90 32 166 69 99 64
176 -15 224 -64 40 -164 16 -224 -53 -27 -31 -44 -71 -67 -161 -1 -5 -32 -8
-68 -7 -108 4 -167 -35 -183 -121 -6 -30 -12 -37 -33 -40 -40 -5 -74 -61 -71
-116 2 -33 -1 -46 -14 -53 -24 -14 -47 -62 -47 -99 0 -44 87 -206 139 -257 71
-71 147 -102 263 -105 58 -2 72 -7 163 -62 55 -32 142 -79 193 -102 50 -24 92
-49 92 -57 0 -7 13 -33 28 -58 25 -39 30 -62 45 -209 9 -91 31 -262 48 -380
l32 -215 -47 -67 c-273 -390 -242 -783 88 -1112 68 -67 85 -90 75 -97 -8 -5
-17 -9 -21 -9 -4 0 -23 -14 -43 -31 -69 -61 -85 -132 -39 -168 14 -11 60 -32
104 -46 54 -18 83 -34 94 -51 22 -32 60 -31 90 1 23 25 76 126 76 145 0 5 3
11 8 13 4 3 8 -47 9 -111 1 -132 22 -228 72 -334 17 -36 31 -68 31 -71 0 -4
-25 -7 -55 -7 -31 0 -91 -7 -133 -16 -223 -46 -367 -165 -338 -280 10 -39 92
-72 223 -89 59 -8 110 -15 113 -15 4 0 12 -15 18 -34 26 -72 171 -106 457
-106 364 0 658 48 735 120 29 27 32 35 27 72 -12 88 -99 167 -236 213 l-79 26
-25 57 c-43 99 -103 290 -93 299 2 2 51 -1 109 -7 189 -21 314 17 416 125 29
31 54 55 55 53 2 -2 17 -24 34 -49 46 -68 138 -148 209 -182 93 -43 172 -53
298 -39 654 73 1035 732 1164 2012 37 366 46 579 45 1135 -1 1463 -146 2512
-436 3160 -197 439 -458 700 -803 801 -74 22 -116 27 -230 30 -99 3 -152 0
-180 -9z m334 -103 c328 -67 604 -334 796 -772 278 -632 425 -1712 425 -3137
0 -1281 -158 -2134 -483 -2615 -72 -106 -216 -246 -308 -297 -142 -81 -295
-119 -441 -111 -409 24 -615 660 -698 2153 -5 105 -12 231 -15 280 -13 226
-59 1635 -53 1640 2 1 37 18 79 38 134 64 247 209 278 355 35 168 -19 343
-145 467 -53 53 -141 107 -208 129 -17 6 -18 17 -11 199 34 1017 149 1482 406
1650 73 48 210 55 378 21z m-864 -128 c35 -17 84 -54 117 -88 l57 -57 -26 -73
c-14 -40 -40 -131 -57 -202 l-32 -129 -90 85 c-170 163 -325 283 -458 354
l-59 32 40 25 c35 22 152 68 208 81 11 2 70 4 130 3 99 -2 116 -5 170 -31z
m-1619 -936 c22 -125 31 -155 66 -216 53 -94 105 -153 197 -223 76 -58 168
-144 227 -212 27 -31 30 -39 20 -57 -11 -21 -14 -19 -81 39 -39 33 -111 92
-161 130 -100 76 -167 143 -209 209 -89 142 -122 257 -112 395 4 44 10 91 14
105 l8 25 3 -25 c1 -14 14 -90 28 -170z m584 -790 c8 -16 8 -20 -3 -20 -18 0
-39 24 -30 33 11 12 22 8 33 -13z m-161 -35 l31 -35 -41 -30 c-23 -17 -43 -29
-44 -28 -6 7 8 128 15 128 4 0 21 -16 39 -35z m1326 -79 c179 -88 277 -271
246 -458 -16 -99 -54 -172 -125 -244 -217 -217 -572 -155 -703 123 -114 239 9
520 265 604 44 15 78 18 150 15 83 -3 101 -7 167 -40z m-940 19 c33 -9 80 -26
104 -38 54 -27 133 -96 160 -141 20 -32 20 -35 5 -72 -34 -81 -28 -254 12
-358 6 -16 4 -17 -14 -7 -36 19 -91 13 -117 -13 -36 -36 -41 -69 -17 -117 l20
-40 -31 -20 c-50 -31 -154 -59 -216 -59 -274 0 -488 245 -444 506 44 256 293
422 538 359z m239 -651 c9 -3 16 -12 16 -19 0 -20 -26 -25 -49 -9 -34 24 -9
44 33 28z m-572 -231 c87 -43 159 -57 259 -50 46 3 93 8 105 12 19 6 21 0 37
-112 31 -216 40 -389 34 -663 -3 -146 -9 -273 -12 -283 -6 -14 -12 -10 -35 25
-16 24 -45 59 -64 77 -30 29 -36 42 -36 77 0 23 9 71 20 106 25 80 25 102 0
154 -37 76 -140 99 -224 50 -86 -50 -118 -118 -115 -238 l2 -81 -64 -18 c-35
-10 -66 -15 -69 -13 -3 3 -6 249 -8 546 l-4 541 56 -49 c30 -28 84 -64 118
-81z m753 -63 c45 0 105 7 134 16 29 8 55 13 58 11 2 -3 -28 -21 -68 -41 -59
-29 -83 -36 -132 -36 -64 0 -129 24 -161 59 -16 18 -15 18 36 5 29 -8 89 -14
133 -14z m-595 -940 c0 -5 -2 -10 -4 -10 -3 0 -8 5 -11 10 -3 6 -1 10 4 10 6
0 11 -4 11 -10z m60 0 c11 -8 8 -9 -14 -6 -16 3 -31 8 -34 11 -10 9 33 5 48
-5z m588 3 c-10 -2 -26 -2 -35 0 -10 3 -2 5 17 5 19 0 27 -2 18 -5z m112 -3
c-8 -5 -22 -10 -30 -10 -13 0 -13 1 0 10 8 5 22 10 30 10 13 0 13 -1 0 -10z
m60 0 c42 -22 60 -72 60 -164 0 -47 -3 -86 -7 -86 -5 0 -8 42 -8 94 0 101 -5
114 -60 148 -31 18 -18 26 15 8z m-985 -10 c3 -5 1 -10 -4 -10 -6 0 -11 5 -11
10 0 6 2 10 4 10 3 0 8 -4 11 -10z m575 -22 c0 -5 -9 -3 -20 4 -11 7 -20 16
-20 20 0 5 9 3 20 -4 11 -7 20 -16 20 -20z m175 22 c-3 -5 -11 -10 -16 -10 -6
0 -7 5 -4 10 3 6 11 10 16 10 6 0 7 -4 4 -10z m125 -11 c0 -11 -3 -11 -24 -3
-23 9 -20 23 4 17 11 -3 20 -9 20 -14z m-986 -28 c-8 -15 -15 -55 -15 -87 -1
-34 -5 -51 -9 -40 -9 25 5 123 20 142 19 22 20 17 4 -15z m214 15 c-7 -8 -15
-12 -17 -11 -5 6 10 25 20 25 5 0 4 -6 -3 -14z m-98 0 c0 -3 -4 -8 -10 -11 -5
-3 -10 -1 -10 4 0 6 5 11 10 11 6 0 10 -2 10 -4z m-440 -36 c-6 -11 -12 -39
-13 -60 -1 -28 -4 -35 -10 -25 -13 24 15 127 30 112 2 -3 0 -15 -7 -27z m395
8 c-11 -6 -23 -16 -27 -22 -5 -7 -8 -8 -8 0 0 15 22 34 40 34 11 -1 10 -4 -5
-12z m224 8 c-15 -13 -49 -25 -49 -17 0 5 8 12 18 14 24 6 36 8 31 3z m25 -8
c-4 -7 -15 -22 -24 -33 -10 -11 -20 -29 -23 -40 -4 -19 -5 -19 -6 1 0 12 8 31
19 44 11 13 20 27 20 32 0 4 5 8 11 8 5 0 7 -6 3 -12z m610 6 c9 -3 16 -10 16
-15 0 -6 -7 -6 -18 0 -10 6 -28 7 -40 4 -23 -6 -25 -15 -23 -133 1 -45 -1 -52
-10 -36 -18 30 -6 156 17 173 20 14 34 16 58 7z m109 -6 c-20 -10 -23 -19 -25
-101 -2 -72 -6 -92 -20 -101 -14 -8 -22 -7 -35 8 -17 18 -17 18 4 5 12 -7 26
-10 30 -5 4 4 8 45 8 90 0 86 12 117 44 115 12 0 10 -3 -6 -11z m-855 -32
c-16 -51 5 -116 46 -144 26 -18 46 -22 104 -22 57 0 72 3 72 15 0 8 5 15 10
15 14 0 13 -13 -2 -28 -7 -7 -41 -12 -83 -12 -60 0 -76 4 -104 24 -37 28 -61
67 -61 101 0 36 12 85 20 85 5 0 3 -15 -2 -34z m539 -49 c4 -39 1 -79 -7 -103
-8 -21 -12 -61 -11 -89 l3 -50 -26 24 c-19 18 -23 28 -16 42 6 10 10 30 10 46
0 38 19 69 21 33 0 -23 1 -23 9 -5 11 27 12 101 1 149 -7 26 -6 35 1 28 6 -6
12 -39 15 -75z m83 -7 l-7 -85 -1 81 c-1 44 1 84 5 87 10 11 10 7 3 -83z m290
64 c12 -32 12 -34 0 -34 -5 0 -10 8 -10 18 0 10 -5 23 -12 30 -9 9 -9 12 0 12
7 0 17 -12 22 -26z m-735 -24 c-16 -16 -31 -27 -34 -24 -6 6 52 63 58 58 3 -2
-8 -18 -24 -34z m308 -67 c0 -35 -3 -67 -7 -70 -3 -4 -6 26 -6 65 0 38 -3 79
-6 89 -5 16 -4 16 7 -1 7 -11 12 -48 12 -83z m-950 54 c-4 -26 0 -38 22 -60
15 -15 23 -27 17 -27 -15 0 -52 50 -52 71 0 18 10 49 15 49 2 0 1 -15 -2 -33z
m517 -9 c-1 -30 -3 -38 -9 -28 -8 14 -4 70 5 70 2 0 4 -19 4 -42z m717 -65
c-2 -21 -4 -4 -4 37 0 41 2 58 4 38 2 -21 2 -55 0 -75z m-920 45 c-2 -13 -4
-5 -4 17 -1 22 1 32 4 23 2 -10 2 -28 0 -40z m1073 -55 c0 -29 5 -53 10 -53 6
0 10 -4 10 -10 0 -22 -19 -8 -29 21 -14 41 -15 131 -1 109 5 -8 10 -39 10 -67z
m-790 63 c0 -2 -8 -10 -17 -17 -16 -13 -17 -12 -4 4 13 16 21 21 21 13z m196
-93 c-5 -5 -36 50 -36 64 0 4 9 -7 21 -26 11 -18 18 -35 15 -38z m-826 27 c12
-23 12 -24 -3 -11 -10 7 -17 20 -17 29 0 18 3 16 20 -18z m584 15 c11 -8 15
-15 10 -15 -6 0 -19 7 -30 15 -10 8 -14 14 -9 14 6 0 19 -6 29 -14z m-469 -5
c-3 -5 -12 -10 -18 -10 -7 0 -6 4 3 10 19 12 23 12 15 0z m1470 0 c-3 -5 -16
-10 -28 -9 -20 1 -20 2 3 9 14 4 26 8 28 9 2 1 0 -3 -3 -9z m-865 -10 c9 -6
-6 -7 -45 -3 -33 3 -62 7 -64 9 -10 9 95 3 109 -6z m217 -37 c-3 -10 -5 -4 -5
12 0 17 2 24 5 18 2 -7 2 -21 0 -30z m-887 -3 c8 -5 12 -11 10 -14 -3 -2 -14
2 -24 10 -22 15 -10 19 14 4z m98 -5 c-3 -3 -23 -8 -44 -10 -38 -5 -38 -5 -6
4 18 5 36 11 39 15 4 3 9 4 11 1 3 -3 3 -7 0 -10z m1012 -7 c0 -4 -9 -8 -20
-8 -11 0 -20 4 -20 8 0 4 9 8 20 8 11 0 20 -4 20 -8z m440 2 c0 -5 -10 -10
-22 -9 -22 0 -22 1 -3 9 11 5 21 9 23 9 1 1 2 -3 2 -9z m-1185 -511 c61 -22
173 -25 238 -5 26 8 47 12 47 10 0 -7 -49 -122 -82 -192 -57 -124 -203 -341
-218 -325 -8 8 -55 341 -66 472 -7 71 -6 74 12 66 10 -4 42 -16 69 -26z m532
-23 c5 -4 -55 -149 -84 -203 -55 -105 -69 -130 -102 -178 -51 -76 -149 -198
-250 -315 -86 -99 -178 -226 -214 -296 -8 -16 -21 -68 -27 -114 -6 -46 -17
-95 -24 -108 -12 -23 -13 -23 -30 -6 -15 15 -17 28 -11 83 19 187 93 329 265
506 38 39 100 114 139 168 67 93 198 337 235 438 l18 46 41 -9 c23 -5 43 -10
44 -12z m872 -1671 c25 -99 70 -231 104 -308 l26 -57 -55 -60 c-64 -69 -134
-107 -215 -116 -55 -6 -245 11 -267 25 -9 5 -32 163 -32 223 0 17 14 33 53 57
75 49 196 161 279 258 49 57 74 79 79 71 4 -8 17 -49 28 -93z m-793 -540 c27
-101 88 -264 125 -337 29 -56 7 -38 -42 34 -49 71 -102 184 -117 248 -16 69
-25 167 -16 181 10 16 15 4 50 -126z"/>
<path d="M4050 5561 c0 -47 -77 -68 -104 -30 -14 21 -15 20 -35 -19 -25 -50
-26 -73 -4 -119 24 -52 67 -75 127 -70 42 4 55 10 83 41 28 30 33 43 33 86 0
41 -5 55 -30 83 -35 41 -70 54 -70 28z"/>
<path d="M3296 5516 c7 -28 -25 -66 -55 -66 -20 0 -51 25 -51 41 0 20 -20 7
-36 -23 -34 -66 0 -145 74 -174 56 -22 111 -7 147 40 45 60 28 159 -35 191
-41 21 -51 19 -44 -9z"/>
</g>
</svg>
